<?xml version="1.0"?>
<svg xmlns="http://www.w3.org/2000/svg" xmlns:xlink="http://www.w3.org/1999/xlink" xmlns:svgjs="http://svgjs.com/svgjs" version="1.1" width="512" height="512" x="0" y="0" viewBox="0 0 512 512" style="enable-background:new 0 0 512 512" xml:space="preserve" class=""><g>
<g xmlns="http://www.w3.org/2000/svg">
	<g>
		<path d="M496.985,103.853H322.62c-1.845-4.295-4.506-8.319-8.008-11.821l-27.558-27.558c-7.167-7.168-16.698-11.116-26.836-11.116    c-10.137,0-19.667,3.948-26.836,11.115l-27.558,27.558c-3.501,3.501-6.164,7.526-8.008,11.821H15.015    C6.723,103.852,0,110.575,0,118.867c0,8.292,6.723,15.016,15.015,15.016h182.802c1.845,4.295,4.506,8.319,8.008,11.821    l27.558,27.558c7.168,7.168,16.699,11.115,26.836,11.115c10.138,0,19.668-3.948,26.836-11.115l27.558-27.558    c3.501-3.501,6.164-7.526,8.008-11.821h174.365c8.292,0,15.015-6.723,15.015-15.015S505.277,103.853,496.985,103.853z" fill="#e2e8f0" data-original="#000000" style="" class=""/>
	</g>
</g>
<g xmlns="http://www.w3.org/2000/svg">
	<g>
		<path d="M496.985,242.988H204.099c-1.878-4.357-4.576-8.365-8.032-11.821l-27.557-27.558    c-7.168-7.168-16.699-11.115-26.836-11.115c-10.138,0-19.668,3.948-26.836,11.115l-27.558,27.558    c-3.501,3.501-6.164,7.526-8.008,11.821H15.015C6.723,242.988,0,249.711,0,258.003s6.723,15.015,15.015,15.015h64.258    c1.845,4.295,4.506,8.319,8.008,11.821l27.558,27.558c7.167,7.168,16.698,11.116,26.836,11.116    c10.137,0,19.667-3.948,26.836-11.116l27.557-27.557c3.455-3.455,6.155-7.464,8.032-11.821h292.886    c8.292,0,15.015-6.723,15.015-15.015C512,249.712,505.277,242.988,496.985,242.988z" fill="#e2e8f0" data-original="#000000" style="" class=""/>
	</g>
</g>
<g xmlns="http://www.w3.org/2000/svg">
	<g>
		<path d="M496.985,378.12h-74.268c-1.845-4.295-4.506-8.319-8.008-11.821l-27.558-27.558c-7.167-7.168-16.698-11.116-26.836-11.116    c-10.137,0-19.667,3.948-26.836,11.115l-27.558,27.558c-3.501,3.501-6.164,7.526-8.008,11.821h-282.9    C6.723,378.119,0,384.841,0,393.133c0,8.292,6.723,15.015,15.015,15.015h282.9c1.845,4.295,4.506,8.319,8.008,11.821    l27.558,27.558c7.168,7.168,16.699,11.115,26.836,11.115c10.138,0,19.668-3.948,26.836-11.115l27.558-27.558    c3.501-3.501,6.164-7.526,8.008-11.821h74.268c8.292,0,15.015-6.723,15.015-15.015C512,384.841,505.277,378.12,496.985,378.12z" fill="#e2e8f0" data-original="#000000" style="" class=""/>
	</g>
</g>
<g xmlns="http://www.w3.org/2000/svg">
</g>
<g xmlns="http://www.w3.org/2000/svg">
</g>
<g xmlns="http://www.w3.org/2000/svg">
</g>
<g xmlns="http://www.w3.org/2000/svg">
</g>
<g xmlns="http://www.w3.org/2000/svg">
</g>
<g xmlns="http://www.w3.org/2000/svg">
</g>
<g xmlns="http://www.w3.org/2000/svg">
</g>
<g xmlns="http://www.w3.org/2000/svg">
</g>
<g xmlns="http://www.w3.org/2000/svg">
</g>
<g xmlns="http://www.w3.org/2000/svg">
</g>
<g xmlns="http://www.w3.org/2000/svg">
</g>
<g xmlns="http://www.w3.org/2000/svg">
</g>
<g xmlns="http://www.w3.org/2000/svg">
</g>
<g xmlns="http://www.w3.org/2000/svg">
</g>
<g xmlns="http://www.w3.org/2000/svg">
</g>
</g></svg>
